<svg xmlns="http://www.w3.org/2000/svg" viewBox="0 0 120 120" role="img" aria-labelledby="title desc">
  <title id="title">Neo Cast Logo</title>
  <desc id="desc">A bold neobrutalist weather logo with sun and cloud shapes.</desc>
  <rect x="8" y="8" width="104" height="104" rx="16" fill="#ffdf2b" stroke="#0b0b0b" stroke-width="6"/>
  <circle cx="48" cy="46" r="18" fill="#ff6f3c" stroke="#0b0b0b" stroke-width="6"/>
  <path d="M70 70c0-9 7-16 16-16 7 0 13 4 15 11 7 1 13 7 13 15 0 9-7 16-16 16H66c-9 0-16-7-16-16 0-8 6-14 13-15 2-6 8-11 15-11 9 0 16 7 16 16z" fill="#4fd1ff" stroke="#0b0b0b" stroke-width="6"/>
  <path d="M28 87h22" stroke="#0b0b0b" stroke-width="6" stroke-linecap="round"/>
</svg>
